<svg width="1074" height="279" viewBox="0 0 1074 279" fill="none" xmlns="http://www.w3.org/2000/svg">
<path d="M676.579 278V276.284H672.775V275.36L676.795 269.54H677.815V275.24H679.051V276.284H677.815V278H676.579ZM676.579 275.24V271.484L674.011 275.24H676.579ZM683.006 278.108C682.022 278.108 681.27 277.736 680.75 276.992C680.238 276.24 679.982 275.164 679.982 273.764C679.982 272.34 680.238 271.264 680.75 270.536C681.27 269.8 682.022 269.432 683.006 269.432C683.998 269.432 684.75 269.8 685.262 270.536C685.774 271.264 686.03 272.336 686.03 273.752C686.03 275.16 685.77 276.24 685.25 276.992C684.738 277.736 683.99 278.108 683.006 278.108ZM683.006 277.076C683.614 277.076 684.066 276.808 684.362 276.272C684.658 275.736 684.806 274.896 684.806 273.752C684.806 272.608 684.658 271.776 684.362 271.256C684.074 270.728 683.622 270.464 683.006 270.464C682.398 270.464 681.946 270.728 681.65 271.256C681.354 271.784 681.206 272.616 681.206 273.752C681.206 274.896 681.354 275.736 681.65 276.272C681.946 276.808 682.398 277.076 683.006 277.076ZM687.454 278V269.54H688.666V274.7H688.69L691.234 272.144H692.734L689.926 274.964L692.95 278H691.438L688.69 275.324H688.666V278H687.454Z" fill="white" fill-opacity="0.897318"/>
<path d="M762.579 278V276.284H758.775V275.36L762.795 269.54H763.815V275.24H765.051V276.284H763.815V278H762.579ZM762.579 275.24V271.484L760.011 275.24H762.579ZM769.138 278.108C768.594 278.108 768.066 278.024 767.554 277.856C767.05 277.68 766.63 277.436 766.294 277.124L766.714 276.164C767.45 276.756 768.25 277.052 769.114 277.052C769.666 277.052 770.098 276.904 770.41 276.608C770.722 276.304 770.878 275.908 770.878 275.42C770.878 274.916 770.73 274.504 770.434 274.184C770.138 273.864 769.726 273.704 769.198 273.704C768.454 273.704 767.858 274.012 767.41 274.628H766.546V269.54H771.586V270.584H767.758V273.26C768.206 272.868 768.774 272.672 769.462 272.672C769.998 272.672 770.462 272.784 770.854 273.008C771.246 273.232 771.55 273.548 771.766 273.956C771.982 274.356 772.09 274.824 772.09 275.36C772.09 275.904 771.97 276.384 771.73 276.8C771.49 277.208 771.15 277.528 770.71 277.76C770.27 277.992 769.746 278.108 769.138 278.108ZM773.454 278V269.54H774.666V274.7H774.69L777.234 272.144H778.734L775.926 274.964L778.95 278H777.438L774.69 275.324H774.666V278H773.454Z" fill="white" fill-opacity="0.897318"/>
<path d="M847.943 278.108C847.399 278.108 846.871 278.024 846.359 277.856C845.855 277.68 845.435 277.436 845.099 277.124L845.519 276.164C846.255 276.756 847.055 277.052 847.919 277.052C848.471 277.052 848.903 276.904 849.215 276.608C849.527 276.304 849.683 275.908 849.683 275.42C849.683 274.916 849.535 274.504 849.239 274.184C848.943 273.864 848.531 273.704 848.003 273.704C847.259 273.704 846.663 274.012 846.215 274.628H845.351V269.54H850.391V270.584H846.563V273.26C847.011 272.868 847.579 272.672 848.267 272.672C848.803 272.672 849.267 272.784 849.659 273.008C850.051 273.232 850.355 273.548 850.571 273.956C850.787 274.356 850.895 274.824 850.895 275.36C850.895 275.904 850.775 276.384 850.535 276.8C850.295 277.208 849.955 277.528 849.515 277.76C849.075 277.992 848.551 278.108 847.943 278.108ZM855.006 278.108C854.022 278.108 853.27 277.736 852.75 276.992C852.238 276.24 851.982 275.164 851.982 273.764C851.982 272.34 852.238 271.264 852.75 270.536C853.27 269.8 854.022 269.432 855.006 269.432C855.998 269.432 856.75 269.8 857.262 270.536C857.774 271.264 858.03 272.336 858.03 273.752C858.03 275.16 857.77 276.24 857.25 276.992C856.738 277.736 855.99 278.108 855.006 278.108ZM855.006 277.076C855.614 277.076 856.066 276.808 856.362 276.272C856.658 275.736 856.806 274.896 856.806 273.752C856.806 272.608 856.658 271.776 856.362 271.256C856.074 270.728 855.622 270.464 855.006 270.464C854.398 270.464 853.946 270.728 853.65 271.256C853.354 271.784 853.206 272.616 853.206 273.752C853.206 274.896 853.354 275.736 853.65 276.272C853.946 276.808 854.398 277.076 855.006 277.076ZM859.454 278V269.54H860.666V274.7H860.69L863.234 272.144H864.734L861.926 274.964L864.95 278H863.438L860.69 275.324H860.666V278H859.454Z" fill="white" fill-opacity="0.897318"/>
<path d="M933.943 278.108C933.399 278.108 932.871 278.024 932.359 277.856C931.855 277.68 931.435 277.436 931.099 277.124L931.519 276.164C932.255 276.756 933.055 277.052 933.919 277.052C934.471 277.052 934.903 276.904 935.215 276.608C935.527 276.304 935.683 275.908 935.683 275.42C935.683 274.916 935.535 274.504 935.239 274.184C934.943 273.864 934.531 273.704 934.003 273.704C933.259 273.704 932.663 274.012 932.215 274.628H931.351V269.54H936.391V270.584H932.563V273.26C933.011 272.868 933.579 272.672 934.267 272.672C934.803 272.672 935.267 272.784 935.659 273.008C936.051 273.232 936.355 273.548 936.571 273.956C936.787 274.356 936.895 274.824 936.895 275.36C936.895 275.904 936.775 276.384 936.535 276.8C936.295 277.208 935.955 277.528 935.515 277.76C935.075 277.992 934.551 278.108 933.943 278.108ZM941.138 278.108C940.594 278.108 940.066 278.024 939.554 277.856C939.05 277.68 938.63 277.436 938.294 277.124L938.714 276.164C939.45 276.756 940.25 277.052 941.114 277.052C941.666 277.052 942.098 276.904 942.41 276.608C942.722 276.304 942.878 275.908 942.878 275.42C942.878 274.916 942.73 274.504 942.434 274.184C942.138 273.864 941.726 273.704 941.198 273.704C940.454 273.704 939.858 274.012 939.41 274.628H938.546V269.54H943.586V270.584H939.758V273.26C940.206 272.868 940.774 272.672 941.462 272.672C941.998 272.672 942.462 272.784 942.854 273.008C943.246 273.232 943.55 273.548 943.766 273.956C943.982 274.356 944.09 274.824 944.09 275.36C944.09 275.904 943.97 276.384 943.73 276.8C943.49 277.208 943.15 277.528 942.71 277.76C942.27 277.992 941.746 278.108 941.138 278.108ZM945.454 278V269.54H946.666V274.7H946.69L949.234 272.144H950.734L947.926 274.964L950.95 278H949.438L946.69 275.324H946.666V278H945.454Z" fill="white" fill-opacity="0.897318"/>
<path d="M1020.11 278.108C1019.09 278.108 1018.29 277.744 1017.73 277.016C1017.18 276.288 1016.91 275.268 1016.91 273.956C1016.91 272.508 1017.22 271.392 1017.84 270.608C1018.47 269.824 1019.33 269.432 1020.43 269.432C1020.87 269.432 1021.3 269.52 1021.74 269.696C1022.18 269.864 1022.55 270.104 1022.85 270.416L1022.41 271.352C1022.13 271.064 1021.81 270.848 1021.45 270.704C1021.11 270.56 1020.76 270.488 1020.41 270.488C1019.67 270.488 1019.09 270.76 1018.69 271.304C1018.3 271.84 1018.11 272.644 1018.11 273.716V274.196C1018.27 273.708 1018.54 273.328 1018.93 273.056C1019.33 272.776 1019.79 272.636 1020.31 272.636C1020.81 272.636 1021.25 272.752 1021.62 272.984C1022.01 273.216 1022.31 273.536 1022.52 273.944C1022.74 274.344 1022.85 274.804 1022.85 275.324C1022.85 275.868 1022.73 276.352 1022.5 276.776C1022.27 277.192 1021.94 277.52 1021.53 277.76C1021.12 277.992 1020.65 278.108 1020.11 278.108ZM1020.04 277.1C1020.53 277.1 1020.92 276.94 1021.23 276.62C1021.53 276.3 1021.68 275.884 1021.68 275.372C1021.68 274.86 1021.53 274.444 1021.23 274.124C1020.92 273.804 1020.53 273.644 1020.04 273.644C1019.55 273.644 1019.15 273.804 1018.85 274.124C1018.55 274.444 1018.39 274.86 1018.39 275.372C1018.39 275.884 1018.55 276.3 1018.85 276.62C1019.15 276.94 1019.55 277.1 1020.04 277.1ZM1027.01 278.108C1026.02 278.108 1025.27 277.736 1024.75 276.992C1024.24 276.24 1023.98 275.164 1023.98 273.764C1023.98 272.34 1024.24 271.264 1024.75 270.536C1025.27 269.8 1026.02 269.432 1027.01 269.432C1028 269.432 1028.75 269.8 1029.26 270.536C1029.77 271.264 1030.03 272.336 1030.03 273.752C1030.03 275.16 1029.77 276.24 1029.25 276.992C1028.74 277.736 1027.99 278.108 1027.01 278.108ZM1027.01 277.076C1027.61 277.076 1028.07 276.808 1028.36 276.272C1028.66 275.736 1028.81 274.896 1028.81 273.752C1028.81 272.608 1028.66 271.776 1028.36 271.256C1028.07 270.728 1027.62 270.464 1027.01 270.464C1026.4 270.464 1025.95 270.728 1025.65 271.256C1025.35 271.784 1025.21 272.616 1025.21 273.752C1025.21 274.896 1025.35 275.736 1025.65 276.272C1025.95 276.808 1026.4 277.076 1027.01 277.076ZM1031.45 278V269.54H1032.67V274.7H1032.69L1035.23 272.144H1036.73L1033.93 274.964L1036.95 278H1035.44L1032.69 275.324H1032.67V278H1031.45Z" fill="white" fill-opacity="0.897318"/>
<path d="M80.0406 278.108C79.4966 278.108 78.9686 278.024 78.4566 277.856C77.9526 277.68 77.5326 277.436 77.1966 277.124L77.6166 276.164C78.3526 276.756 79.1526 277.052 80.0166 277.052C80.5686 277.052 81.0006 276.904 81.3126 276.608C81.6246 276.304 81.7806 275.908 81.7806 275.42C81.7806 274.916 81.6326 274.504 81.3366 274.184C81.0406 273.864 80.6286 273.704 80.1006 273.704C79.3566 273.704 78.7606 274.012 78.3126 274.628H77.4486V269.54H82.4886V270.584H78.6606V273.26C79.1086 272.868 79.6766 272.672 80.3646 272.672C80.9006 272.672 81.3646 272.784 81.7566 273.008C82.1486 273.232 82.4526 273.548 82.6686 273.956C82.8846 274.356 82.9926 274.824 82.9926 275.36C82.9926 275.904 82.8726 276.384 82.6326 276.8C82.3926 277.208 82.0526 277.528 81.6126 277.76C81.1726 277.992 80.6486 278.108 80.0406 278.108ZM84.3559 278V269.54H85.5679V274.7H85.5919L88.1359 272.144H89.6359L86.8279 274.964L89.8519 278H88.3399L85.5919 275.324H85.5679V278H84.3559Z" fill="white" fill-opacity="0.897318"/>
<path d="M157.115 278V276.956H159.035V270.98L157.535 271.916L157.031 270.992L159.395 269.54H160.271V276.956H162.071V278H157.115ZM166.506 278.108C165.522 278.108 164.77 277.736 164.25 276.992C163.738 276.24 163.482 275.164 163.482 273.764C163.482 272.34 163.738 271.264 164.25 270.536C164.77 269.8 165.522 269.432 166.506 269.432C167.498 269.432 168.25 269.8 168.762 270.536C169.274 271.264 169.53 272.336 169.53 273.752C169.53 275.16 169.27 276.24 168.75 276.992C168.238 277.736 167.49 278.108 166.506 278.108ZM166.506 277.076C167.114 277.076 167.566 276.808 167.862 276.272C168.158 275.736 168.306 274.896 168.306 273.752C168.306 272.608 168.158 271.776 167.862 271.256C167.574 270.728 167.122 270.464 166.506 270.464C165.898 270.464 165.446 270.728 165.15 271.256C164.854 271.784 164.706 272.616 164.706 273.752C164.706 274.896 164.854 275.736 165.15 276.272C165.446 276.808 165.898 277.076 166.506 277.076ZM170.954 278V269.54H172.166V274.7H172.19L174.734 272.144H176.234L173.426 274.964L176.45 278H174.938L172.19 275.324H172.166V278H170.954Z" fill="white" fill-opacity="0.897318"/>
<path d="M243.115 278V276.956H245.035V270.98L243.535 271.916L243.031 270.992L245.395 269.54H246.271V276.956H248.071V278H243.115ZM252.638 278.108C252.094 278.108 251.566 278.024 251.054 277.856C250.55 277.68 250.13 277.436 249.794 277.124L250.214 276.164C250.95 276.756 251.75 277.052 252.614 277.052C253.166 277.052 253.598 276.904 253.91 276.608C254.222 276.304 254.378 275.908 254.378 275.42C254.378 274.916 254.23 274.504 253.934 274.184C253.638 273.864 253.226 273.704 252.698 273.704C251.954 273.704 251.358 274.012 250.91 274.628H250.046V269.54H255.086V270.584H251.258V273.26C251.706 272.868 252.274 272.672 252.962 272.672C253.498 272.672 253.962 272.784 254.354 273.008C254.746 273.232 255.05 273.548 255.266 273.956C255.482 274.356 255.59 274.824 255.59 275.36C255.59 275.904 255.47 276.384 255.23 276.8C254.99 277.208 254.65 277.528 254.21 277.76C253.77 277.992 253.246 278.108 252.638 278.108ZM256.954 278V269.54H258.166V274.7H258.19L260.734 272.144H262.234L259.426 274.964L262.45 278H260.938L258.19 275.324H258.166V278H256.954Z" fill="white" fill-opacity="0.897318"/>
<path d="M328.731 278V277.076L331.551 274.052C331.943 273.628 332.223 273.244 332.391 272.9C332.567 272.556 332.655 272.208 332.655 271.856C332.655 270.944 332.119 270.488 331.047 270.488C330.231 270.488 329.499 270.796 328.851 271.412L328.407 270.464C328.727 270.152 329.135 269.904 329.631 269.72C330.127 269.528 330.643 269.432 331.179 269.432C332.051 269.432 332.719 269.632 333.183 270.032C333.655 270.432 333.891 271.004 333.891 271.748C333.891 272.252 333.767 272.744 333.519 273.224C333.279 273.704 332.899 274.216 332.379 274.76L330.291 276.956H334.227V278H328.731ZM338.506 278.108C337.522 278.108 336.77 277.736 336.25 276.992C335.738 276.24 335.482 275.164 335.482 273.764C335.482 272.34 335.738 271.264 336.25 270.536C336.77 269.8 337.522 269.432 338.506 269.432C339.498 269.432 340.25 269.8 340.762 270.536C341.274 271.264 341.53 272.336 341.53 273.752C341.53 275.16 341.27 276.24 340.75 276.992C340.238 277.736 339.49 278.108 338.506 278.108ZM338.506 277.076C339.114 277.076 339.566 276.808 339.862 276.272C340.158 275.736 340.306 274.896 340.306 273.752C340.306 272.608 340.158 271.776 339.862 271.256C339.574 270.728 339.122 270.464 338.506 270.464C337.898 270.464 337.446 270.728 337.15 271.256C336.854 271.784 336.706 272.616 336.706 273.752C336.706 274.896 336.854 275.736 337.15 276.272C337.446 276.808 337.898 277.076 338.506 277.076ZM342.954 278V269.54H344.166V274.7H344.19L346.734 272.144H348.234L345.426 274.964L348.45 278H346.938L344.19 275.324H344.166V278H342.954Z" fill="white" fill-opacity="0.897318"/>
<path d="M414.731 278V277.076L417.551 274.052C417.943 273.628 418.223 273.244 418.391 272.9C418.567 272.556 418.655 272.208 418.655 271.856C418.655 270.944 418.119 270.488 417.047 270.488C416.231 270.488 415.499 270.796 414.851 271.412L414.407 270.464C414.727 270.152 415.135 269.904 415.631 269.72C416.127 269.528 416.643 269.432 417.179 269.432C418.051 269.432 418.719 269.632 419.183 270.032C419.655 270.432 419.891 271.004 419.891 271.748C419.891 272.252 419.767 272.744 419.519 273.224C419.279 273.704 418.899 274.216 418.379 274.76L416.291 276.956H420.227V278H414.731ZM424.638 278.108C424.094 278.108 423.566 278.024 423.054 277.856C422.55 277.68 422.13 277.436 421.794 277.124L422.214 276.164C422.95 276.756 423.75 277.052 424.614 277.052C425.166 277.052 425.598 276.904 425.91 276.608C426.222 276.304 426.378 275.908 426.378 275.42C426.378 274.916 426.23 274.504 425.934 274.184C425.638 273.864 425.226 273.704 424.698 273.704C423.954 273.704 423.358 274.012 422.91 274.628H422.046V269.54H427.086V270.584H423.258V273.26C423.706 272.868 424.274 272.672 424.962 272.672C425.498 272.672 425.962 272.784 426.354 273.008C426.746 273.232 427.05 273.548 427.266 273.956C427.482 274.356 427.59 274.824 427.59 275.36C427.59 275.904 427.47 276.384 427.23 276.8C426.99 277.208 426.65 277.528 426.21 277.76C425.77 277.992 425.246 278.108 424.638 278.108ZM428.954 278V269.54H430.166V274.7H430.19L432.734 272.144H434.234L431.426 274.964L434.45 278H432.938L430.19 275.324H430.166V278H428.954Z" fill="white" fill-opacity="0.897318"/>
<path d="M589.679 278.108C589.111 278.108 588.571 278.024 588.059 277.856C587.547 277.68 587.119 277.436 586.775 277.124L587.207 276.164C587.583 276.468 587.971 276.692 588.371 276.836C588.771 276.98 589.195 277.052 589.643 277.052C590.219 277.052 590.655 276.928 590.951 276.68C591.255 276.432 591.407 276.076 591.407 275.612C591.407 275.148 591.255 274.804 590.951 274.58C590.655 274.356 590.223 274.244 589.655 274.244H588.347V273.2H589.535C590.039 273.2 590.435 273.072 590.723 272.816C591.019 272.56 591.167 272.208 591.167 271.76C591.167 271.352 591.031 271.04 590.759 270.824C590.487 270.6 590.099 270.488 589.595 270.488C588.739 270.488 587.991 270.796 587.351 271.412L586.919 270.464C587.247 270.136 587.655 269.884 588.143 269.708C588.639 269.524 589.155 269.432 589.691 269.432C590.539 269.432 591.199 269.628 591.671 270.02C592.143 270.404 592.379 270.94 592.379 271.628C592.379 272.092 592.259 272.5 592.019 272.852C591.787 273.204 591.463 273.46 591.047 273.62C591.551 273.748 591.939 273.996 592.211 274.364C592.483 274.724 592.619 275.168 592.619 275.696C592.619 276.44 592.355 277.028 591.827 277.46C591.307 277.892 590.591 278.108 589.679 278.108ZM597.138 278.108C596.594 278.108 596.066 278.024 595.554 277.856C595.05 277.68 594.63 277.436 594.294 277.124L594.714 276.164C595.45 276.756 596.25 277.052 597.114 277.052C597.666 277.052 598.098 276.904 598.41 276.608C598.722 276.304 598.878 275.908 598.878 275.42C598.878 274.916 598.73 274.504 598.434 274.184C598.138 273.864 597.726 273.704 597.198 273.704C596.454 273.704 595.858 274.012 595.41 274.628H594.546V269.54H599.586V270.584H595.758V273.26C596.206 272.868 596.774 272.672 597.462 272.672C597.998 272.672 598.462 272.784 598.854 273.008C599.246 273.232 599.55 273.548 599.766 273.956C599.982 274.356 600.09 274.824 600.09 275.36C600.09 275.904 599.97 276.384 599.73 276.8C599.49 277.208 599.15 277.528 598.71 277.76C598.27 277.992 597.746 278.108 597.138 278.108ZM601.454 278V269.54H602.666V274.7H602.69L605.234 272.144H606.734L603.926 274.964L606.95 278H605.438L602.69 275.324H602.666V278H601.454Z" fill="white" fill-opacity="0.897318"/>
<path d="M503.179 278.108C502.611 278.108 502.071 278.024 501.559 277.856C501.047 277.68 500.619 277.436 500.275 277.124L500.707 276.164C501.083 276.468 501.471 276.692 501.871 276.836C502.271 276.98 502.695 277.052 503.143 277.052C503.719 277.052 504.155 276.928 504.451 276.68C504.755 276.432 504.907 276.076 504.907 275.612C504.907 275.148 504.755 274.804 504.451 274.58C504.155 274.356 503.723 274.244 503.155 274.244H501.847V273.2H503.035C503.539 273.2 503.935 273.072 504.223 272.816C504.519 272.56 504.667 272.208 504.667 271.76C504.667 271.352 504.531 271.04 504.259 270.824C503.987 270.6 503.599 270.488 503.095 270.488C502.239 270.488 501.491 270.796 500.851 271.412L500.419 270.464C500.747 270.136 501.155 269.884 501.643 269.708C502.139 269.524 502.655 269.432 503.191 269.432C504.039 269.432 504.699 269.628 505.171 270.02C505.643 270.404 505.879 270.94 505.879 271.628C505.879 272.092 505.759 272.5 505.519 272.852C505.287 273.204 504.963 273.46 504.547 273.62C505.051 273.748 505.439 273.996 505.711 274.364C505.983 274.724 506.119 275.168 506.119 275.696C506.119 276.44 505.855 277.028 505.327 277.46C504.807 277.892 504.091 278.108 503.179 278.108ZM510.506 278.108C509.522 278.108 508.77 277.736 508.25 276.992C507.738 276.24 507.482 275.164 507.482 273.764C507.482 272.34 507.738 271.264 508.25 270.536C508.77 269.8 509.522 269.432 510.506 269.432C511.498 269.432 512.25 269.8 512.762 270.536C513.274 271.264 513.53 272.336 513.53 273.752C513.53 275.16 513.27 276.24 512.75 276.992C512.238 277.736 511.49 278.108 510.506 278.108ZM510.506 277.076C511.114 277.076 511.566 276.808 511.862 276.272C512.158 275.736 512.306 274.896 512.306 273.752C512.306 272.608 512.158 271.776 511.862 271.256C511.574 270.728 511.122 270.464 510.506 270.464C509.898 270.464 509.446 270.728 509.15 271.256C508.854 271.784 508.706 272.616 508.706 273.752C508.706 274.896 508.854 275.736 509.15 276.272C509.446 276.808 509.898 277.076 510.506 277.076ZM514.954 278V269.54H516.166V274.7H516.19L518.734 272.144H520.234L517.426 274.964L520.45 278H518.938L516.19 275.324H516.166V278H514.954Z" fill="white" fill-opacity="0.897318"/>
<path d="M1.02 245V244.076L3.84 241.052C4.232 240.628 4.512 240.244 4.68 239.9C4.856 239.556 4.944 239.208 4.944 238.856C4.944 237.944 4.408 237.488 3.336 237.488C2.52 237.488 1.788 237.796 1.14 238.412L0.696 237.464C1.016 237.152 1.424 236.904 1.92 236.72C2.416 236.528 2.932 236.432 3.468 236.432C4.34 236.432 5.008 236.632 5.472 237.032C5.944 237.432 6.18 238.004 6.18 238.748C6.18 239.252 6.056 239.744 5.808 240.224C5.568 240.704 5.188 241.216 4.668 241.76L2.58 243.956H6.516V245H1.02ZM10.7953 245.108C9.81131 245.108 9.05931 244.736 8.53931 243.992C8.02731 243.24 7.77131 242.164 7.77131 240.764C7.77131 239.34 8.02731 238.264 8.53931 237.536C9.05931 236.8 9.81131 236.432 10.7953 236.432C11.7873 236.432 12.5393 236.8 13.0513 237.536C13.5633 238.264 13.8193 239.336 13.8193 240.752C13.8193 242.16 13.5593 243.24 13.0393 243.992C12.5273 244.736 11.7793 245.108 10.7953 245.108ZM10.7953 244.076C11.4033 244.076 11.8553 243.808 12.1513 243.272C12.4473 242.736 12.5953 241.896 12.5953 240.752C12.5953 239.608 12.4473 238.776 12.1513 238.256C11.8633 237.728 11.4113 237.464 10.7953 237.464C10.1873 237.464 9.73531 237.728 9.43931 238.256C9.14331 238.784 8.99531 239.616 8.99531 240.752C8.99531 241.896 9.14331 242.736 9.43931 243.272C9.73531 243.808 10.1873 244.076 10.7953 244.076ZM17.9426 245.312L17.1266 244.832L22.0826 236.228L22.8986 236.708L17.9426 245.312ZM17.0786 241.604C16.4226 241.604 15.9106 241.376 15.5426 240.92C15.1746 240.456 14.9906 239.82 14.9906 239.012C14.9906 238.204 15.1746 237.572 15.5426 237.116C15.9186 236.66 16.4306 236.432 17.0786 236.432C17.7266 236.432 18.2346 236.66 18.6026 237.116C18.9786 237.572 19.1666 238.204 19.1666 239.012C19.1666 239.82 18.9826 240.456 18.6146 240.92C18.2466 241.376 17.7346 241.604 17.0786 241.604ZM17.0786 240.752C17.4146 240.752 17.6746 240.608 17.8586 240.32C18.0506 240.032 18.1466 239.596 18.1466 239.012C18.1466 238.428 18.0506 237.992 17.8586 237.704C17.6746 237.416 17.4146 237.272 17.0786 237.272C16.7426 237.272 16.4786 237.416 16.2866 237.704C16.1026 237.992 16.0106 238.428 16.0106 239.012C16.0106 239.604 16.1026 240.044 16.2866 240.332C16.4786 240.612 16.7426 240.752 17.0786 240.752ZM22.9466 245.108C22.2986 245.108 21.7906 244.88 21.4226 244.424C21.0546 243.968 20.8706 243.332 20.8706 242.516C20.8706 241.716 21.0546 241.088 21.4226 240.632C21.7906 240.168 22.2986 239.936 22.9466 239.936C23.6026 239.936 24.1146 240.168 24.4826 240.632C24.8506 241.088 25.0346 241.716 25.0346 242.516C25.0346 243.332 24.8506 243.968 24.4826 244.424C24.1146 244.88 23.6026 245.108 22.9466 245.108ZM22.9466 244.268C23.2826 244.268 23.5426 244.124 23.7266 243.836C23.9186 243.548 24.0146 243.108 24.0146 242.516C24.0146 241.94 23.9186 241.508 23.7266 241.22C23.5426 240.932 23.2826 240.788 22.9466 240.788C22.6106 240.788 22.3466 240.932 22.1546 241.22C21.9706 241.5 21.8786 241.932 21.8786 242.516C21.8786 243.108 21.9706 243.548 22.1546 243.836C22.3466 244.124 22.6106 244.268 22.9466 244.268Z" fill="white" fill-opacity="0.897318"/>
<g opacity="0.4">
<path d="M76 241.5H1073.16" stroke="#E2E2E2" stroke-width="0.2" stroke-linecap="square"/>
<path d="M76 182.5H1073.16" stroke="#E2E2E2" stroke-width="0.2" stroke-linecap="square"/>
<path d="M76 123.5H1073.16" stroke="#E2E2E2" stroke-width="0.2" stroke-linecap="square"/>
<path d="M76 64.5H1073.16" stroke="#E2E2E2" stroke-width="0.2" stroke-linecap="square"/>
<path d="M76 5.5H1073.16" stroke="#E2E2E2" stroke-width="0.2" stroke-linecap="square"/>
</g>
<path d="M4.368 186V184.284H0.564V183.36L4.584 177.54H5.604V183.24H6.84V184.284H5.604V186H4.368ZM4.368 183.24V179.484L1.8 183.24H4.368ZM10.7953 186.108C9.81131 186.108 9.05931 185.736 8.53931 184.992C8.02731 184.24 7.77131 183.164 7.77131 181.764C7.77131 180.34 8.02731 179.264 8.53931 178.536C9.05931 177.8 9.81131 177.432 10.7953 177.432C11.7873 177.432 12.5393 177.8 13.0513 178.536C13.5633 179.264 13.8193 180.336 13.8193 181.752C13.8193 183.16 13.5593 184.24 13.0393 184.992C12.5273 185.736 11.7793 186.108 10.7953 186.108ZM10.7953 185.076C11.4033 185.076 11.8553 184.808 12.1513 184.272C12.4473 183.736 12.5953 182.896 12.5953 181.752C12.5953 180.608 12.4473 179.776 12.1513 179.256C11.8633 178.728 11.4113 178.464 10.7953 178.464C10.1873 178.464 9.73531 178.728 9.43931 179.256C9.14331 179.784 8.99531 180.616 8.99531 181.752C8.99531 182.896 9.14331 183.736 9.43931 184.272C9.73531 184.808 10.1873 185.076 10.7953 185.076ZM17.9426 186.312L17.1266 185.832L22.0826 177.228L22.8986 177.708L17.9426 186.312ZM17.0786 182.604C16.4226 182.604 15.9106 182.376 15.5426 181.92C15.1746 181.456 14.9906 180.82 14.9906 180.012C14.9906 179.204 15.1746 178.572 15.5426 178.116C15.9186 177.66 16.4306 177.432 17.0786 177.432C17.7266 177.432 18.2346 177.66 18.6026 178.116C18.9786 178.572 19.1666 179.204 19.1666 180.012C19.1666 180.82 18.9826 181.456 18.6146 181.92C18.2466 182.376 17.7346 182.604 17.0786 182.604ZM17.0786 181.752C17.4146 181.752 17.6746 181.608 17.8586 181.32C18.0506 181.032 18.1466 180.596 18.1466 180.012C18.1466 179.428 18.0506 178.992 17.8586 178.704C17.6746 178.416 17.4146 178.272 17.0786 178.272C16.7426 178.272 16.4786 178.416 16.2866 178.704C16.1026 178.992 16.0106 179.428 16.0106 180.012C16.0106 180.604 16.1026 181.044 16.2866 181.332C16.4786 181.612 16.7426 181.752 17.0786 181.752ZM22.9466 186.108C22.2986 186.108 21.7906 185.88 21.4226 185.424C21.0546 184.968 20.8706 184.332 20.8706 183.516C20.8706 182.716 21.0546 182.088 21.4226 181.632C21.7906 181.168 22.2986 180.936 22.9466 180.936C23.6026 180.936 24.1146 181.168 24.4826 181.632C24.8506 182.088 25.0346 182.716 25.0346 183.516C25.0346 184.332 24.8506 184.968 24.4826 185.424C24.1146 185.88 23.6026 186.108 22.9466 186.108ZM22.9466 185.268C23.2826 185.268 23.5426 185.124 23.7266 184.836C23.9186 184.548 24.0146 184.108 24.0146 183.516C24.0146 182.94 23.9186 182.508 23.7266 182.22C23.5426 181.932 23.2826 181.788 22.9466 181.788C22.6106 181.788 22.3466 181.932 22.1546 182.22C21.9706 182.5 21.8786 182.932 21.8786 183.516C21.8786 184.108 21.9706 184.548 22.1546 184.836C22.3466 185.124 22.6106 185.268 22.9466 185.268Z" fill="white" fill-opacity="0.897318"/>
<path d="M3.9 127.108C2.876 127.108 2.084 126.744 1.524 126.016C0.972 125.288 0.696 124.268 0.696 122.956C0.696 121.508 1.008 120.392 1.632 119.608C2.256 118.824 3.12 118.432 4.224 118.432C4.656 118.432 5.092 118.52 5.532 118.696C5.972 118.864 6.34 119.104 6.636 119.416L6.204 120.352C5.916 120.064 5.596 119.848 5.244 119.704C4.9 119.56 4.552 119.488 4.2 119.488C3.456 119.488 2.884 119.76 2.484 120.304C2.092 120.84 1.896 121.644 1.896 122.716V123.196C2.056 122.708 2.332 122.328 2.724 122.056C3.124 121.776 3.584 121.636 4.104 121.636C4.6 121.636 5.036 121.752 5.412 121.984C5.796 122.216 6.096 122.536 6.312 122.944C6.528 123.344 6.636 123.804 6.636 124.324C6.636 124.868 6.52 125.352 6.288 125.776C6.056 126.192 5.732 126.52 5.316 126.76C4.908 126.992 4.436 127.108 3.9 127.108ZM3.828 126.1C4.316 126.1 4.712 125.94 5.016 125.62C5.32 125.3 5.472 124.884 5.472 124.372C5.472 123.86 5.32 123.444 5.016 123.124C4.712 122.804 4.316 122.644 3.828 122.644C3.34 122.644 2.944 122.804 2.64 123.124C2.336 123.444 2.184 123.86 2.184 124.372C2.184 124.884 2.336 125.3 2.64 125.62C2.944 125.94 3.34 126.1 3.828 126.1ZM10.7953 127.108C9.81131 127.108 9.05931 126.736 8.53931 125.992C8.02731 125.24 7.77131 124.164 7.77131 122.764C7.77131 121.34 8.02731 120.264 8.53931 119.536C9.05931 118.8 9.81131 118.432 10.7953 118.432C11.7873 118.432 12.5393 118.8 13.0513 119.536C13.5633 120.264 13.8193 121.336 13.8193 122.752C13.8193 124.16 13.5593 125.24 13.0393 125.992C12.5273 126.736 11.7793 127.108 10.7953 127.108ZM10.7953 126.076C11.4033 126.076 11.8553 125.808 12.1513 125.272C12.4473 124.736 12.5953 123.896 12.5953 122.752C12.5953 121.608 12.4473 120.776 12.1513 120.256C11.8633 119.728 11.4113 119.464 10.7953 119.464C10.1873 119.464 9.73531 119.728 9.43931 120.256C9.14331 120.784 8.99531 121.616 8.99531 122.752C8.99531 123.896 9.14331 124.736 9.43931 125.272C9.73531 125.808 10.1873 126.076 10.7953 126.076ZM17.9426 127.312L17.1266 126.832L22.0826 118.228L22.8986 118.708L17.9426 127.312ZM17.0786 123.604C16.4226 123.604 15.9106 123.376 15.5426 122.92C15.1746 122.456 14.9906 121.82 14.9906 121.012C14.9906 120.204 15.1746 119.572 15.5426 119.116C15.9186 118.66 16.4306 118.432 17.0786 118.432C17.7266 118.432 18.2346 118.66 18.6026 119.116C18.9786 119.572 19.1666 120.204 19.1666 121.012C19.1666 121.82 18.9826 122.456 18.6146 122.92C18.2466 123.376 17.7346 123.604 17.0786 123.604ZM17.0786 122.752C17.4146 122.752 17.6746 122.608 17.8586 122.32C18.0506 122.032 18.1466 121.596 18.1466 121.012C18.1466 120.428 18.0506 119.992 17.8586 119.704C17.6746 119.416 17.4146 119.272 17.0786 119.272C16.7426 119.272 16.4786 119.416 16.2866 119.704C16.1026 119.992 16.0106 120.428 16.0106 121.012C16.0106 121.604 16.1026 122.044 16.2866 122.332C16.4786 122.612 16.7426 122.752 17.0786 122.752ZM22.9466 127.108C22.2986 127.108 21.7906 126.88 21.4226 126.424C21.0546 125.968 20.8706 125.332 20.8706 124.516C20.8706 123.716 21.0546 123.088 21.4226 122.632C21.7906 122.168 22.2986 121.936 22.9466 121.936C23.6026 121.936 24.1146 122.168 24.4826 122.632C24.8506 123.088 25.0346 123.716 25.0346 124.516C25.0346 125.332 24.8506 125.968 24.4826 126.424C24.1146 126.88 23.6026 127.108 22.9466 127.108ZM22.9466 126.268C23.2826 126.268 23.5426 126.124 23.7266 125.836C23.9186 125.548 24.0146 125.108 24.0146 124.516C24.0146 123.94 23.9186 123.508 23.7266 123.22C23.5426 122.932 23.2826 122.788 22.9466 122.788C22.6106 122.788 22.3466 122.932 22.1546 123.22C21.9706 123.5 21.8786 123.932 21.8786 124.516C21.8786 125.108 21.9706 125.548 22.1546 125.836C22.3466 126.124 22.6106 126.268 22.9466 126.268Z" fill="white" fill-opacity="0.897318"/>
<path d="M3.6 68.108C2.632 68.108 1.876 67.9 1.332 67.484C0.796 67.068 0.528 66.488 0.528 65.744C0.528 65.224 0.664 64.784 0.936 64.424C1.216 64.056 1.58 63.804 2.028 63.668C1.628 63.5 1.312 63.244 1.08 62.9C0.848 62.548 0.732 62.144 0.732 61.688C0.732 60.984 0.992 60.432 1.512 60.032C2.032 59.632 2.728 59.432 3.6 59.432C4.48 59.432 5.18 59.632 5.7 60.032C6.22 60.432 6.48 60.984 6.48 61.688C6.48 62.144 6.36 62.548 6.12 62.9C5.888 63.252 5.572 63.508 5.172 63.668C5.628 63.804 5.992 64.056 6.264 64.424C6.536 64.784 6.672 65.224 6.672 65.744C6.672 66.488 6.4 67.068 5.856 67.484C5.32 67.9 4.568 68.108 3.6 68.108ZM3.6 63.224C4.136 63.224 4.552 63.1 4.848 62.852C5.152 62.596 5.304 62.248 5.304 61.808C5.304 61.376 5.152 61.036 4.848 60.788C4.552 60.54 4.136 60.416 3.6 60.416C3.064 60.416 2.648 60.54 2.352 60.788C2.056 61.036 1.908 61.376 1.908 61.808C1.908 62.248 2.056 62.596 2.352 62.852C2.648 63.1 3.064 63.224 3.6 63.224ZM3.6 67.124C4.872 67.124 5.508 66.636 5.508 65.66C5.508 64.692 4.872 64.208 3.6 64.208C2.976 64.208 2.5 64.328 2.172 64.568C1.852 64.808 1.692 65.172 1.692 65.66C1.692 66.636 2.328 67.124 3.6 67.124ZM10.7953 68.108C9.81131 68.108 9.05931 67.736 8.53931 66.992C8.02731 66.24 7.77131 65.164 7.77131 63.764C7.77131 62.34 8.02731 61.264 8.53931 60.536C9.05931 59.8 9.81131 59.432 10.7953 59.432C11.7873 59.432 12.5393 59.8 13.0513 60.536C13.5633 61.264 13.8193 62.336 13.8193 63.752C13.8193 65.16 13.5593 66.24 13.0393 66.992C12.5273 67.736 11.7793 68.108 10.7953 68.108ZM10.7953 67.076C11.4033 67.076 11.8553 66.808 12.1513 66.272C12.4473 65.736 12.5953 64.896 12.5953 63.752C12.5953 62.608 12.4473 61.776 12.1513 61.256C11.8633 60.728 11.4113 60.464 10.7953 60.464C10.1873 60.464 9.73531 60.728 9.43931 61.256C9.14331 61.784 8.99531 62.616 8.99531 63.752C8.99531 64.896 9.14331 65.736 9.43931 66.272C9.73531 66.808 10.1873 67.076 10.7953 67.076ZM17.9426 68.312L17.1266 67.832L22.0826 59.228L22.8986 59.708L17.9426 68.312ZM17.0786 64.604C16.4226 64.604 15.9106 64.376 15.5426 63.92C15.1746 63.456 14.9906 62.82 14.9906 62.012C14.9906 61.204 15.1746 60.572 15.5426 60.116C15.9186 59.66 16.4306 59.432 17.0786 59.432C17.7266 59.432 18.2346 59.66 18.6026 60.116C18.9786 60.572 19.1666 61.204 19.1666 62.012C19.1666 62.82 18.9826 63.456 18.6146 63.92C18.2466 64.376 17.7346 64.604 17.0786 64.604ZM17.0786 63.752C17.4146 63.752 17.6746 63.608 17.8586 63.32C18.0506 63.032 18.1466 62.596 18.1466 62.012C18.1466 61.428 18.0506 60.992 17.8586 60.704C17.6746 60.416 17.4146 60.272 17.0786 60.272C16.7426 60.272 16.4786 60.416 16.2866 60.704C16.1026 60.992 16.0106 61.428 16.0106 62.012C16.0106 62.604 16.1026 63.044 16.2866 63.332C16.4786 63.612 16.7426 63.752 17.0786 63.752ZM22.9466 68.108C22.2986 68.108 21.7906 67.88 21.4226 67.424C21.0546 66.968 20.8706 66.332 20.8706 65.516C20.8706 64.716 21.0546 64.088 21.4226 63.632C21.7906 63.168 22.2986 62.936 22.9466 62.936C23.6026 62.936 24.1146 63.168 24.4826 63.632C24.8506 64.088 25.0346 64.716 25.0346 65.516C25.0346 66.332 24.8506 66.968 24.4826 67.424C24.1146 67.88 23.6026 68.108 22.9466 68.108ZM22.9466 67.268C23.2826 67.268 23.5426 67.124 23.7266 66.836C23.9186 66.548 24.0146 66.108 24.0146 65.516C24.0146 64.94 23.9186 64.508 23.7266 64.22C23.5426 63.932 23.2826 63.788 22.9466 63.788C22.6106 63.788 22.3466 63.932 22.1546 64.22C21.9706 64.5 21.8786 64.932 21.8786 65.516C21.8786 66.108 21.9706 66.548 22.1546 66.836C22.3466 67.124 22.6106 67.268 22.9466 67.268Z" fill="white" fill-opacity="0.897318"/>
<path d="M1.404 9V7.956H3.324V1.98L1.824 2.916L1.32 1.992L3.684 0.539999H4.56V7.956H6.36V9H1.404ZM10.7953 9.108C9.81131 9.108 9.05931 8.736 8.53931 7.992C8.02731 7.24 7.77131 6.164 7.77131 4.764C7.77131 3.34 8.02731 2.264 8.53931 1.536C9.05931 0.799999 9.81131 0.431999 10.7953 0.431999C11.7873 0.431999 12.5393 0.799999 13.0513 1.536C13.5633 2.264 13.8193 3.336 13.8193 4.752C13.8193 6.16 13.5593 7.24 13.0393 7.992C12.5273 8.736 11.7793 9.108 10.7953 9.108ZM10.7953 8.076C11.4033 8.076 11.8553 7.808 12.1513 7.272C12.4473 6.736 12.5953 5.896 12.5953 4.752C12.5953 3.608 12.4473 2.776 12.1513 2.256C11.8633 1.728 11.4113 1.464 10.7953 1.464C10.1873 1.464 9.73531 1.728 9.43931 2.256C9.14331 2.784 8.99531 3.616 8.99531 4.752C8.99531 5.896 9.14331 6.736 9.43931 7.272C9.73531 7.808 10.1873 8.076 10.7953 8.076ZM17.9906 9.108C17.0066 9.108 16.2546 8.736 15.7346 7.992C15.2226 7.24 14.9666 6.164 14.9666 4.764C14.9666 3.34 15.2226 2.264 15.7346 1.536C16.2546 0.799999 17.0066 0.431999 17.9906 0.431999C18.9826 0.431999 19.7346 0.799999 20.2466 1.536C20.7586 2.264 21.0146 3.336 21.0146 4.752C21.0146 6.16 20.7546 7.24 20.2346 7.992C19.7226 8.736 18.9746 9.108 17.9906 9.108ZM17.9906 8.076C18.5986 8.076 19.0506 7.808 19.3466 7.272C19.6426 6.736 19.7906 5.896 19.7906 4.752C19.7906 3.608 19.6426 2.776 19.3466 2.256C19.0586 1.728 18.6066 1.464 17.9906 1.464C17.3826 1.464 16.9306 1.728 16.6346 2.256C16.3386 2.784 16.1906 3.616 16.1906 4.752C16.1906 5.896 16.3386 6.736 16.6346 7.272C16.9306 7.808 17.3826 8.076 17.9906 8.076ZM25.1379 9.312L24.3219 8.832L29.2779 0.228L30.0939 0.707999L25.1379 9.312ZM24.2739 5.604C23.6179 5.604 23.1059 5.376 22.7379 4.92C22.3699 4.456 22.1859 3.82 22.1859 3.012C22.1859 2.204 22.3699 1.572 22.7379 1.116C23.1139 0.66 23.6259 0.431999 24.2739 0.431999C24.9219 0.431999 25.4299 0.66 25.7979 1.116C26.1739 1.572 26.3619 2.204 26.3619 3.012C26.3619 3.82 26.1779 4.456 25.8099 4.92C25.4419 5.376 24.9299 5.604 24.2739 5.604ZM24.2739 4.752C24.6099 4.752 24.8699 4.608 25.0539 4.32C25.2459 4.032 25.3419 3.596 25.3419 3.012C25.3419 2.428 25.2459 1.992 25.0539 1.704C24.8699 1.416 24.6099 1.272 24.2739 1.272C23.9379 1.272 23.6739 1.416 23.4819 1.704C23.2979 1.992 23.2059 2.428 23.2059 3.012C23.2059 3.604 23.2979 4.044 23.4819 4.332C23.6739 4.612 23.9379 4.752 24.2739 4.752ZM30.1419 9.108C29.4939 9.108 28.9859 8.88 28.6179 8.424C28.2499 7.968 28.0659 7.332 28.0659 6.516C28.0659 5.716 28.2499 5.088 28.6179 4.632C28.9859 4.168 29.4939 3.936 30.1419 3.936C30.7979 3.936 31.3099 4.168 31.6779 4.632C32.0459 5.088 32.2299 5.716 32.2299 6.516C32.2299 7.332 32.0459 7.968 31.6779 8.424C31.3099 8.88 30.7979 9.108 30.1419 9.108ZM30.1419 8.268C30.4779 8.268 30.7379 8.124 30.9219 7.836C31.1139 7.548 31.2099 7.108 31.2099 6.516C31.2099 5.94 31.1139 5.508 30.9219 5.22C30.7379 4.932 30.4779 4.788 30.1419 4.788C29.8059 4.788 29.5419 4.932 29.3499 5.22C29.1659 5.5 29.0739 5.932 29.0739 6.516C29.0739 7.108 29.1659 7.548 29.3499 7.836C29.5419 8.124 29.8059 8.268 30.1419 8.268Z" fill="white" fill-opacity="0.897318"/>
</svg>
